<svg width="14" height="16" viewBox="0 0 14 16" fill="none" xmlns="http://www.w3.org/2000/svg">
<path d="M12.2449 6.85712H11.5102V4.65304C11.5102 2.08775 9.42241 0 6.85712 0C4.29182 0 2.20407 2.08775 2.20407 4.65304V6.85712H1.46938C0.658161 6.85712 0 7.51528 0 8.3265V14.204C0 15.0152 0.658161 15.6734 1.46938 15.6734H12.2449C13.0561 15.6734 13.7142 15.0152 13.7142 14.204V8.3265C13.7142 7.51528 13.0561 6.85712 12.2449 6.85712ZM9.06119 6.85712H4.65304V4.65304C4.65304 3.43774 5.64182 2.44897 6.85712 2.44897C8.07242 2.44897 9.06119 3.43774 9.06119 4.65304V6.85712Z" fill="#7B7B7B"/>
</svg>
