<svg width="48" height="63" viewBox="0 0 48 63" fill="none" xmlns="http://www.w3.org/2000/svg">
<g clip-path="url(#clip0_2_5611)">
<path d="M18.5548 52.6613C19.8424 52.8488 21.1453 52.9101 22.4448 52.8443C26.2248 52.6713 29.5294 51.3076 32.3556 48.8215C34.9748 46.5165 36.6957 43.6512 37.4729 40.255C38.0104 37.9678 38.0551 35.5931 37.6042 33.2875C37.0167 30.2485 35.6119 27.4256 33.5395 25.1203C31.6157 22.955 29.2639 21.3992 26.5478 20.3472C23.7529 19.2681 20.8652 18.9312 17.9038 19.0851C15.986 19.1856 14.1198 19.609 12.2323 19.9037C11.9508 19.9494 11.6655 19.9686 11.3804 19.961C10.7546 19.9389 10.5144 19.5658 10.7374 18.9714C10.9393 18.4434 11.2915 18.017 11.6791 17.6208C13.8906 15.361 16.6623 14.1622 19.6812 13.4361C21.4335 13.0299 23.2336 12.8664 25.0307 12.9503C27.9361 13.0545 30.7934 13.7206 33.4436 14.9114C36.1837 16.1237 38.6611 17.8551 40.7382 20.0093C43.0634 22.415 44.8662 25.2723 46.0342 28.4029C47.2539 31.6194 47.7904 35.0532 47.6098 38.487C47.4998 40.6422 47.1687 42.7732 46.4339 44.8229C45.5709 46.0196 44.5333 47.0746 43.4957 48.1075C42.7448 48.8547 41.8474 49.4762 40.9723 50.1048C38.671 51.7481 36.1017 52.9825 33.378 53.7534C31.7788 54.2113 30.1362 54.5025 28.4767 54.6224C25.8302 54.8235 23.2442 54.559 20.6815 53.9345C20.4453 53.8771 20.2202 53.855 20.0133 54.028C19.9592 54.0817 19.8901 54.118 19.8151 54.1321C19.7401 54.1463 19.6625 54.1377 19.5924 54.1074C19.5228 53.5402 19.0484 53.4206 18.6254 53.2828C18.0693 53.1017 17.5424 52.8453 16.9772 52.6874C16.734 52.619 16.4352 52.5476 16.5422 52.1665C16.8228 52.2258 17.1145 52.2459 17.3577 52.4209C17.7365 52.5803 18.1436 52.6621 18.5548 52.6613Z" fill="#FF6161"/>
<path d="M22.1803 10.8243C21.4698 10.8177 20.7676 10.6708 20.1143 10.3923C19.4611 10.1137 18.8696 9.70898 18.3742 9.20142C17.8788 8.69387 17.4892 8.09356 17.228 7.43515C16.9667 6.77674 16.8389 6.07328 16.852 5.36539C16.8823 2.57659 19.0029 -0.0653701 22.3832 0.00402298C25.3557 0.0673819 27.5884 2.42674 27.6146 5.4197C27.6239 6.13284 27.4896 6.8406 27.2196 7.50115C26.9497 8.16169 26.5496 8.76161 26.043 9.26546C25.5363 9.7693 24.9335 10.1668 24.2701 10.4346C23.6066 10.7023 22.896 10.8349 22.1803 10.8243Z" fill="#FF6161"/>
<path d="M46.2583 44.7455C46.1402 44.9054 46.0908 45.1246 45.9555 45.2614C44.9058 46.3124 44.0034 47.4981 42.8427 48.4515C41.7445 49.3566 40.6221 50.2165 39.418 50.9657C38.1971 51.717 36.9078 52.3521 35.5674 52.8625C34.1524 53.4111 32.6902 53.8302 31.1989 54.1145C29.9023 54.3533 28.5901 54.4988 27.2726 54.55C26.4873 54.5812 25.702 54.5098 24.9157 54.4736C23.5541 54.4112 22.2379 54.1226 20.9157 53.845C20.5402 53.7666 20.1607 53.5433 19.8549 53.9939C19.8165 54.0512 19.6682 54.0351 19.5713 54.0532C19.5819 53.9212 19.5997 53.79 19.6248 53.66C19.6561 53.5252 19.651 53.4387 19.4865 53.4075C18.568 53.2315 17.7635 52.7146 16.8481 52.5235C16.7647 52.5043 16.69 52.4584 16.6353 52.3928C16.5806 52.3272 16.549 52.2456 16.5453 52.1605L15.334 51.6908C13.2366 50.8863 11.4218 49.6201 9.6918 48.2202C8.82881 47.2889 7.9618 46.3636 7.18359 45.3569C5.84419 43.6231 4.87319 41.6831 3.91128 39.7321C3.4924 38.8823 3.17447 37.9641 2.48509 37.2701C1.86535 36.6466 1.30315 36.715 0.852986 37.4612C0.171679 38.5916 0.0455011 39.8608 0.0101741 41.13C-0.0725922 44.2949 0.799481 47.2376 2.23073 50.0284C3.12905 51.7753 4.22318 53.3904 5.63525 54.7743C5.86033 54.9865 5.95015 55.3214 6.25599 55.4612C6.45721 55.4836 6.65041 55.5524 6.82022 55.6623C6.71928 55.6251 6.61836 55.5497 6.5255 55.6744C8.50684 57.6858 10.8334 59.1772 13.4244 60.2785C13.7695 60.2594 14.03 60.4615 14.3217 60.6043L14.3106 60.6124C14.363 60.6513 14.4191 60.6849 14.4781 60.7129C16.2414 61.3608 18.0742 61.8026 19.9397 62.0294C23.2705 62.4367 26.5468 62.1953 29.7555 61.2329C35.963 59.3723 40.7059 55.615 44.0761 50.1209C45.0943 48.4649 45.8868 46.6812 46.4329 44.8169C46.4037 44.7254 46.3714 44.5906 46.2583 44.7455ZM5.7473 54.6616C5.82257 54.7077 5.8929 54.7613 5.95722 54.8216C5.89061 54.764 5.82051 54.7106 5.7473 54.6616ZM14.0744 59.1672C14.0199 59.0294 13.9734 58.8896 13.9018 58.7558C14.0067 58.8745 14.0269 59.0264 14.0744 59.1672Z" fill="#EE5656"/>
<path d="M12.0001 32.1682C12.0223 30.0331 13.7442 28.2943 15.8164 28.3154C16.3289 28.3185 16.8357 28.4227 17.3076 28.6218C17.7796 28.821 18.2073 29.1112 18.5661 29.4758C18.925 29.8404 19.2079 30.2721 19.3986 30.7461C19.5893 31.2201 19.684 31.727 19.6772 32.2376C19.661 34.3848 17.9108 36.0763 15.7245 36.0592C13.6857 36.0411 11.9789 34.257 12.0001 32.1682Z" fill="#0ACF66"/>
<path d="M32.7119 37.6411C32.7115 36.9715 32.5376 36.3133 32.2072 35.7302C31.639 34.6944 30.8567 34.5898 30.0452 35.4466C29.7182 35.805 29.41 36.18 29.1217 36.57C27.9205 38.1288 26.6104 39.569 24.8249 40.4922C24.6574 40.5676 24.4898 40.6411 24.3202 40.7195C22.842 41.4301 21.1846 41.685 19.5601 41.4516C17.2871 41.1278 15.4753 39.933 13.9664 38.2405C13.1972 37.3776 12.5402 36.4222 11.7155 35.6055C10.5195 34.4208 9.2931 34.6793 8.66731 36.2452C8.26357 37.2428 8.23933 38.2938 8.39881 39.3135C9.04277 43.4117 11.44 46.2448 15.1029 48.0098C17.9634 49.3896 20.9793 49.6249 24.0709 48.7661C27.1373 47.9153 29.5167 46.1556 31.209 43.4872C31.9993 42.2351 32.5474 40.8724 32.6735 39.3688L32.6958 38.8851C32.7615 38.4734 32.7669 38.0543 32.7119 37.6411Z" fill="#0ACF66"/>
<path d="M6.25391 55.4653C6.72527 55.2642 6.84538 55.6856 7.2148 55.936C6.85245 55.9229 6.77071 55.6122 6.52342 55.6785L6.25391 55.4653Z" fill="#F88077"/>
<path d="M18.5548 52.6613C18.3496 52.7158 18.1346 52.7222 17.9266 52.6799C17.7185 52.6377 17.5231 52.548 17.3557 52.418L18.5548 52.6613Z" fill="#F7786D"/>
<path d="M13.4224 60.2825C13.8261 60.1135 14.0643 60.383 14.3197 60.6083C13.9856 60.5942 13.71 60.4102 13.4224 60.2825Z" fill="#F36E63"/>
<path d="M32.6987 38.8834L32.7109 37.6423C32.8437 38.0461 32.8394 38.4822 32.6987 38.8834Z" fill="#7AB0D9"/>
<path d="M14.1239 59.2869C14.0037 59.1501 13.8836 59.0154 13.7655 58.8766C13.705 58.8042 13.596 58.7308 13.6908 58.6282C13.7202 58.6007 13.7548 58.5796 13.7927 58.5661C13.8305 58.5526 13.8708 58.547 13.9109 58.5497C13.9619 58.5517 14.0105 58.572 14.0476 58.607C14.0848 58.642 14.1079 58.6891 14.1127 58.7398C14.1239 58.9218 14.1208 59.1039 14.1239 59.2869Z" fill="#F36E63"/>
<path d="M5.7482 54.6604C5.87174 54.6755 5.98981 54.7199 6.09255 54.7899C6.19529 54.8599 6.27969 54.9535 6.33865 55.0627C6.03585 54.9893 5.85822 54.8776 5.74719 54.6664L5.7482 54.6604Z" fill="#F88077"/>
</g>
<defs>
<clipPath id="clip0_2_5611">
<rect width="47.6431" height="62.2204" fill="white"/>
</clipPath>
</defs>
</svg>
