<svg width="15" height="15" viewBox="0 0 15 15" fill="none" xmlns="http://www.w3.org/2000/svg">
<path d="M14.9927 14.6211C14.7116 13.3791 13.1064 12.7721 12.5518 12.5809C11.8815 12.412 11.2021 12.2815 10.5169 12.19C10.1715 12.1277 9.84773 11.9785 9.57596 11.7565C9.47937 11.1193 9.45797 10.4731 9.51221 9.83095C9.68409 9.5613 9.83335 9.27788 9.95846 8.9836C10.102 8.4983 10.2117 8.00362 10.2868 7.50312C10.2868 7.50312 10.6055 7.50312 10.7203 6.94077C10.8691 6.51797 10.9661 6.07864 11.009 5.63244C10.9855 5.18613 10.7394 5.19506 10.7394 5.19506C10.9269 4.54288 11.0165 3.86645 11.0052 3.18793C11.0403 1.58249 9.78251 0 7.50603 0C5.19767 0 3.96732 1.58185 3.99983 3.18793C3.99153 3.86493 4.07953 4.53966 4.2612 5.19187C4.2612 5.19187 4.01513 5.18039 3.99154 5.62925C4.03447 6.07545 4.13144 6.51478 4.28032 6.93758C4.38997 7.49993 4.71382 7.49993 4.71382 7.49993C4.78886 8.00043 4.89856 8.49511 5.04213 8.98041C5.16724 9.27469 5.31649 9.55811 5.48837 9.82776C5.54261 10.4699 5.52122 11.1162 5.42462 11.7533C5.15285 11.9753 4.82904 12.1245 4.48368 12.1868C3.79852 12.2784 3.11913 12.4089 2.44881 12.5777C1.89419 12.7728 0.288991 13.3785 0.00785705 14.618C-0.00277599 14.6645 -0.00261456 14.7128 0.00832852 14.7592C0.0192716 14.8057 0.0407056 14.849 0.0709866 14.8859C0.101268 14.9228 0.139591 14.9522 0.183016 14.972C0.226441 14.9917 0.273815 15.0013 0.321503 14.9999H14.6906C14.737 14.9995 14.7827 14.9888 14.8245 14.9685C14.8663 14.9482 14.903 14.9189 14.9319 14.8826C14.9609 14.8463 14.9814 14.804 14.9919 14.7587C15.0024 14.7135 15.0027 14.6665 14.9927 14.6211Z" fill="#7B7B7B"/>
</svg>
